<svg width="12" height="7" viewBox="0 0 12 7" fill="none" xmlns="http://www.w3.org/2000/svg">
<path d="M5.575 6.94999C5.44167 6.94999 5.31667 6.92916 5.2 6.88749C5.08333 6.84583 4.975 6.77499 4.875 6.67499L0.275 2.07499C0.0916667 1.89166 0 1.65833 0 1.37499C0 1.09166 0.0916667 0.858327 0.275 0.674994C0.458333 0.491661 0.691667 0.399994 0.975 0.399994C1.25833 0.399994 1.49167 0.491661 1.675 0.674994L5.575 4.57499L9.475 0.674994C9.65833 0.491661 9.89167 0.399994 10.175 0.399994C10.4583 0.399994 10.6917 0.491661 10.875 0.674994C11.0583 0.858327 11.15 1.09166 11.15 1.37499C11.15 1.65833 11.0583 1.89166 10.875 2.07499L6.275 6.67499C6.175 6.77499 6.06667 6.84583 5.95 6.88749C5.83333 6.92916 5.70833 6.94999 5.575 6.94999Z" fill="#222222"/>
</svg>
